# xmcd
#
# Track frame offsets: 
#        150
#        32444
#        61019
#        74294
#        94606
#        146069
#        183494
#        204944
#        225017
#
# Disc length: 3504 seconds
#
# Revision: 0
# Processed by: cddbd v1.5.2PL0 Copyright (c) Steve Scherf et al.
# Submitted via: ExactAudioCopy v1.3
#
DISCID=690dae09
DTITLE=Todd Wolfe Blues Project - Live From Manny's Car Wash
DYEAR=1999
DGENRE=Modern Electric Blues
TTITLE0=Can't Quit You
TTITLE1=Evil
TTITLE2=Stop Messin' Round
TTITLE3=On the Run
TTITLE4=Same Thing
TTITLE5=Wreck My Life
TTITLE6=4 Walls
TTITLE7=Homework
TTITLE8=Eyesight
EXTD=
EXTT0=
EXTT1=
EXTT2=
EXTT3=
EXTT4=
EXTT5=
EXTT6=
EXTT7=
EXTT8=
PLAYORDER=
